# ProBuilder 5.2.3
# https://unity3d.com/unity/features/worldbuilding/probuilder
# 22/12/2024 1:58:14 CH

mtllib ./2_ObstacleCube.mtl
o 2_ObstacleCube

g Model
v 1.783565 -0.7 1
v -1.783564 -0.7 1
v 1.783565 0.7 1
v -1.783564 0.6999999 1
v -1.783564 -0.7 -1
v -1.783564 0.6999999 -1
v 1.783565 -0.7 -1
v 1.783565 0.7 -1

vt 1.783565 -0.7
vt -1.783564 -0.7
vt 1.783565 0.7
vt -1.783564 0.6999999
vt 1 -0.7
vt -1 -0.7
vt 1 0.6999999
vt -1 0.6999999
vt -1.783565 1
vt 1.783564 1
vt -1.783565 -1
vt 1.783564 -1

vn 0 0 1
vn -1 0 0
vn 0 0 -1
vn 1 0 0
vn -1.670942E-08 1 0
vn 0 -1 0

usemtl Clone_ProBuilderDefault
f 3/3/1 4/4/1 2/2/1 1/1/1
f 4/7/2 6/8/2 5/6/2 2/5/2
f 6/3/3 8/4/3 7/2/3 5/1/3
f 8/7/4 3/8/4 1/6/4 7/5/4
f 8/11/5 6/12/5 4/10/5 3/9/5
f 1/10/6 2/9/6 5/11/6 7/12/6

